<svg width="81" height="81" viewBox="0 0 81 81" fill="none" xmlns="http://www.w3.org/2000/svg">
<g clip-path="url(#clip0)">
<path d="M41.9489 51.1771L32.2676 60.7144C31.6533 61.3195 30.6138 60.8843 30.6138 60.0221V46.6621H41.9487V51.1771H41.9489Z" fill="#708070"/>
<path d="M37.322 47.5853L58.9301 65.3802C59.4843 65.8366 60.3253 65.5552 60.4928 64.8569L75.7705 1.20071C75.9585 0.417601 75.1668 -0.241316 74.4309 0.0858483L5.77879 30.5978C5.00928 30.9398 5.00928 32.0319 5.77879 32.3739L27.9304 42.2191L37.322 47.5853Z" fill="#A8B898"/>
<path d="M68.9028 8.38156L37.3219 47.5855L32.1754 60.5147C31.7715 61.4033 30.4564 61.2085 30.3273 60.241L27.9302 42.2192L67.5003 7.04585C68.3915 6.25325 69.6508 7.45306 68.9028 8.38156Z" fill="#E0E0E0"/>
<path d="M39.5229 62.826C39.0485 62.3517 38.2793 62.3515 37.805 62.8261L27.0721 73.5591C26.5977 74.0337 26.5977 74.8028 27.0721 75.2772C27.3093 75.5144 27.6203 75.6329 27.931 75.6329C28.2419 75.6329 28.5528 75.5144 28.7899 75.2771L39.5228 64.5441C39.9974 64.0696 39.9974 63.3006 39.5229 62.826Z" fill="#708070"/>
<path d="M21.7047 49.4933L11.0555 60.1426C10.5811 60.6172 10.5811 61.3862 11.0555 61.8608C11.2927 62.098 11.6037 62.2165 11.9144 62.2165C12.2253 62.2165 12.5362 62.0978 12.7733 61.8608L23.4225 51.2115C23.8969 50.7369 23.8969 49.9679 23.4225 49.4934C22.9483 49.0191 22.1791 49.0191 21.7047 49.4933Z" fill="#708070"/>
<path d="M21.7048 62.8264L5.60535 78.9263C5.1309 79.4009 5.1309 80.17 5.60535 80.6444C5.8425 80.8816 6.15353 81 6.46424 81C6.77511 81 7.08598 80.8816 7.32312 80.6442L23.4227 64.5444C23.8971 64.0698 23.8971 63.3007 23.4227 62.8263C22.9484 62.3521 22.1792 62.3522 21.7048 62.8264Z" fill="#708070"/>
</g>
<defs>
<clipPath id="clip0">
<rect width="81" height="81" fill="white"/>
</clipPath>
</defs>
</svg>
