<svg width="24" height="24" viewBox="0 0 24 24" fill="none" xmlns="http://www.w3.org/2000/svg">
<path fill-rule="evenodd" clip-rule="evenodd" d="M14.8085 8.87459L19.6485 9.29459C20.5285 9.36459 20.8785 10.4646 20.2085 11.0446L16.5385 14.2246L17.6385 18.9546C17.8385 19.8146 16.9085 20.4946 16.1485 20.0346L11.9985 17.5246L7.84849 20.0246C7.08849 20.4846 6.15849 19.8046 6.35849 18.9446L7.45849 14.2246L3.78849 11.0446C3.11849 10.4646 3.47849 9.36459 4.35849 9.29459L9.18849 8.88459L11.0785 4.42459C11.4185 3.61459 12.5785 3.61459 12.9185 4.42459L14.8085 8.87459ZM8.23849 17.9246L11.9985 15.6546L15.7685 17.9346L14.7685 13.6546L18.0885 10.7746L13.7085 10.3946L11.9985 6.35459L10.2985 10.3846L5.91849 10.7646L9.23849 13.6446L8.23849 17.9246Z" fill="#708070"/>
</svg>
