<svg width="87" height="87" viewBox="0 0 87 87" fill="none" xmlns="http://www.w3.org/2000/svg">
<path d="M30.1238 29.0272C27.2929 29.0272 24.9897 31.8063 24.9897 35.2221C24.9897 38.6378 27.2929 41.4167 30.1238 41.4167C32.9547 41.4167 35.2578 38.6378 35.2578 35.2221C35.2578 31.8063 32.9547 29.0272 30.1238 29.0272ZM30.1238 38.8637C28.7248 38.8637 27.5428 37.1959 27.5428 35.2221C27.5428 33.2479 28.7248 31.5803 30.1238 31.5803C31.5227 31.5803 32.7047 33.2481 32.7047 35.2221C32.7047 37.196 31.5227 38.8637 30.1238 38.8637Z" fill="#708070"/>
<path d="M56.9001 29.0272C54.0692 29.0272 51.7661 31.8063 51.7661 35.2221C51.7661 38.6378 54.0692 41.4167 56.9001 41.4167C59.731 41.4167 62.0342 38.6378 62.0342 35.2221C62.0342 31.8063 59.731 29.0272 56.9001 29.0272ZM56.8998 38.8637C55.5008 38.8637 54.3189 37.1957 54.3189 35.2221C54.3189 33.2479 55.5008 31.5803 56.8998 31.5803C58.2988 31.5803 59.4807 33.2481 59.4807 35.2221C59.4807 37.196 58.2988 38.8637 56.8998 38.8637Z" fill="#708070"/>
<path d="M44.3484 54.8851C41.3976 55.543 38.7296 56.832 37.0287 58.4218C36.1874 59.2081 36.7449 60.631 37.9007 60.631C38.2129 60.631 38.5259 60.5171 38.7721 60.2871C42.6862 56.629 51.3589 55.9967 53.4187 58.4123C53.8763 58.9488 54.6819 59.0128 55.2183 58.5554C57.1498 56.9085 52.5186 53.0639 44.3484 54.8851Z" fill="#708070"/>
<path d="M70.4419 9.33974C69.8883 8.90355 69.0857 8.99871 68.6492 9.55231C68.213 10.1059 68.308 10.9086 68.8618 11.345C91.5543 29.2264 89.0454 64.4728 63.9789 78.945C50.7564 86.5793 34.5173 86.2462 21.5997 78.0764C21.004 77.6997 20.2155 77.877 19.8385 78.473C19.4616 79.0689 19.6392 79.8575 20.2351 80.2342C33.7131 88.7582 50.9627 89.4081 65.2555 81.1559C91.877 65.7863 94.5598 28.3438 70.4419 9.33974Z" fill="#708070"/>
<path d="M65.3627 5.88962C40.6905 -8.41559 8.94656 4.47978 1.50822 32.2409C-3.00677 49.0912 3.00337 66.1149 15.2928 76.5931C15.5331 76.798 15.8275 76.8983 16.1203 76.8983C17.3048 76.8983 17.8479 75.4167 16.9492 74.6504C-4.5257 56.3401 -1.45487 22.1923 23.046 8.04695C35.8078 0.67914 51.419 0.756285 64.0823 8.09844C64.6918 8.45205 65.4736 8.2444 65.8269 7.63421C66.1805 7.02436 65.9727 6.24323 65.3627 5.88962Z" fill="#708070"/>
</svg>
