<svg width="33" height="25" viewBox="0 0 33 25" fill="none" xmlns="http://www.w3.org/2000/svg">
<path d="M6 15C6.13261 15 6.25979 15.0527 6.35355 15.1464C6.44732 15.2402 6.5 15.3674 6.5 15.5V17.5H8.5C8.63261 17.5 8.75979 17.5527 8.85355 17.6464C8.94732 17.7402 9 17.8674 9 18C9 18.1326 8.94732 18.2598 8.85355 18.3536C8.75979 18.4473 8.63261 18.5 8.5 18.5H6.5V20.5C6.5 20.6326 6.44732 20.7598 6.35355 20.8536C6.25979 20.9473 6.13261 21 6 21C5.86739 21 5.74021 20.9473 5.64645 20.8536C5.55268 20.7598 5.5 20.6326 5.5 20.5V18.5H3.5C3.36739 18.5 3.24021 18.4473 3.14645 18.3536C3.05268 18.2598 3 18.1326 3 18C3 17.8674 3.05268 17.7402 3.14645 17.6464C3.24021 17.5527 3.36739 17.5 3.5 17.5H5.5V15.5C5.5 15.3674 5.55268 15.2402 5.64645 15.1464C5.74021 15.0527 5.86739 15 6 15ZM0 18C0 14.6865 2.6865 12 6 12C9.3135 12 12 14.6865 12 18C12 21.3135 9.3135 24 6 24C2.6865 24 0 21.3135 0 18ZM6 13C3.2385 13 1 15.2385 1 18C1 20.7615 3.2385 23 6 23C8.7615 23 11 20.7615 11 18C11 15.2385 8.7615 13 6 13Z" fill="white"/>
<path fill-rule="evenodd" clip-rule="evenodd" d="M14.9444 1C14.9444 0.447715 14.4967 0 13.9444 0C13.3922 0 12.9444 0.447715 12.9444 1V2.55556H9.77778C8.80151 2.55556 7.85018 2.91158 7.13654 3.56813C6.4201 4.22725 6 5.13994 6 6.11111V12C6.70127 12 7.37444 12.1203 8 12.3414V6.11111C8 5.72673 8.16522 5.33939 8.49065 5.03999C8.81888 4.73802 9.28062 4.55556 9.77778 4.55556H12.9444V6.11111C12.9444 6.6634 13.3922 7.11111 13.9444 7.11111C14.4967 7.11111 14.9444 6.6634 14.9444 6.11111V4.55556H24.0556V6.11111C24.0556 6.6634 24.5033 7.11111 25.0556 7.11111C25.6078 7.11111 26.0556 6.6634 26.0556 6.11111V4.55556H29.2222C29.7194 4.55556 30.1811 4.73802 30.5093 5.03999C30.8348 5.33939 31 5.72673 31 6.11111V21.4444C31 21.8288 30.8348 22.2162 30.5093 22.5156C30.1811 22.8175 29.7194 23 29.2222 23H9.77778C9.64096 23 9.50681 22.9862 9.3774 22.9599C8.69125 23.428 7.90294 23.7575 7.05282 23.9079C7.08025 23.9348 7.10816 23.9613 7.13654 23.9874C7.85018 24.644 8.80151 25 9.77778 25H29.2222C30.1985 25 31.1498 24.644 31.8635 23.9874C32.5799 23.3283 33 22.4156 33 21.4444V6.11111C33 5.13994 32.5799 4.22725 31.8635 3.56813C31.1498 2.91158 30.1985 2.55556 29.2222 2.55556H26.0556V1C26.0556 0.447715 25.6078 0 25.0556 0C24.5033 0 24.0556 0.447715 24.0556 1V2.55556H14.9444V1ZM12.5556 10.2222C12.0033 10.2222 11.5556 10.6699 11.5556 11.2222C11.5556 11.7745 12.0033 12.2222 12.5556 12.2222H26.4444C26.9967 12.2222 27.4444 11.7745 27.4444 11.2222C27.4444 10.6699 26.9967 10.2222 26.4444 10.2222H12.5556Z" fill="white"/>
</svg>
