<svg width="51" height="44" viewBox="0 0 51 44" fill="none" xmlns="http://www.w3.org/2000/svg">
<path d="M34.0532 29.2372C34.0532 29.2372 30.9842 33.7658 35.3386 37.5264C35.3386 37.5264 37.9354 32.7065 34.0532 29.2372Z" fill="#708070"/>
<path d="M30.8793 39.3802C30.8793 39.3802 33.4762 34.5603 29.594 31.091C29.594 31.091 26.525 35.6196 30.8793 39.3802Z" fill="#708070"/>
<path d="M40.506 34.8516C40.506 34.8516 46.2243 35.3018 48.2703 30.6143C48.2703 30.6143 42.6832 29.6345 40.506 34.8516Z" fill="#708070"/>
<path d="M37.3583 38.7181C37.3583 38.7181 42.2635 41.6842 46.1719 38.4003C46.1719 38.4003 41.6077 35.0105 37.3583 38.7181Z" fill="#708070"/>
<path d="M31.3252 41.8961C31.3252 41.8961 36.2304 44.8622 40.1388 41.5783C40.1388 41.5783 35.5746 38.1885 31.3252 41.8961Z" fill="#708070"/>
<path d="M43.6012 29.9258C43.6012 29.9258 48.5589 30.323 50.3426 26.2446C50.3688 26.2182 45.4899 25.3707 43.6012 29.9258Z" fill="#708070"/>
<path d="M44.7029 25.6355C44.7029 25.6355 49.3982 23.9936 49.1359 19.5974C49.1097 19.5974 44.3095 20.7892 44.7029 25.6355Z" fill="#708070"/>
<path d="M37.8305 6.8591C37.8305 6.8591 37.5157 4.07838 34.7615 3.60169C34.7352 3.60169 34.7615 6.3824 37.8305 6.8591Z" fill="#708070"/>
<path d="M44.0209 23.0667C44.0209 23.0667 43.7062 18.7764 39.483 17.9025C39.483 17.9025 39.3519 22.1928 44.0209 23.0667Z" fill="#708070"/>
<path d="M41.4766 13.0826C41.4766 13.0826 39.4305 9.74574 35.6795 10.5667C35.6533 10.5667 37.3321 14.0625 41.4766 13.0826Z" fill="#708070"/>
<path d="M34.4467 5.4555C34.4467 5.4555 32.0597 2.91313 28.9382 4.23728C28.9382 4.23728 31.0367 6.99151 34.4467 5.4555Z" fill="#708070"/>
<path d="M17.1344 29.2372C13.2522 32.7065 15.8491 37.5264 15.8491 37.5264C20.2034 33.7658 17.1344 29.2372 17.1344 29.2372Z" fill="#708070"/>
<path d="M20.2821 39.3802C24.6626 35.6196 21.5674 31.091 21.5674 31.091C17.6852 34.5603 20.2821 39.3802 20.2821 39.3802Z" fill="#708070"/>
<path d="M10.6554 34.8516C8.50447 29.6345 2.89108 30.6143 2.89108 30.6143C4.96331 35.3018 10.6554 34.8516 10.6554 34.8516Z" fill="#708070"/>
<path d="M4.98954 38.4003C8.89793 41.6842 13.8031 38.7181 13.8031 38.7181C9.57993 35.0105 4.98954 38.4003 4.98954 38.4003Z" fill="#708070"/>
<path d="M11.0226 41.5783C14.931 44.8622 19.8362 41.8961 19.8362 41.8961C15.613 38.1885 11.0226 41.5783 11.0226 41.5783Z" fill="#708070"/>
<path d="M7.56016 29.9258C5.69777 25.3707 0.818848 26.2182 0.818848 26.2182C2.60254 30.323 7.56016 29.9258 7.56016 29.9258Z" fill="#708070"/>
<path d="M6.4847 25.6355C6.85193 20.7892 2.05169 19.5974 2.05169 19.5974C1.78939 23.9671 6.4847 25.6355 6.4847 25.6355Z" fill="#708070"/>
<path d="M16.4262 3.60169C13.6719 4.07838 13.3572 6.8591 13.3572 6.8591C16.4262 6.3824 16.4262 3.60169 16.4262 3.60169Z" fill="#708070"/>
<path d="M7.1667 23.0667C11.8358 22.1928 11.7046 17.9025 11.7046 17.9025C7.48146 18.7764 7.1667 23.0667 7.1667 23.0667Z" fill="#708070"/>
<path d="M9.71108 13.0826C13.8555 14.0625 15.5081 10.5667 15.5081 10.5667C11.7309 9.74574 9.71108 13.0826 9.71108 13.0826Z" fill="#708070"/>
<path d="M22.2494 4.23728C19.1279 2.88665 16.7409 5.4555 16.7409 5.4555C20.1509 6.99151 22.2494 4.23728 22.2494 4.23728Z" fill="#708070"/>
<path d="M27.4431 41.9755C37.9616 40.2277 45.5161 31.197 44.6242 21.054C44.598 20.6567 44.5456 20.286 44.4931 19.9152C45.4112 19.3856 48.0867 17.5317 47.5096 14.3008C47.5096 14.3008 44.6242 15.3337 44.1521 18.1673C43.8373 16.8697 43.3652 15.6515 42.7881 14.4862C42.9717 14.8305 43.234 15.2012 43.5488 15.5455C43.5488 15.5455 46.0669 12.0498 43.4176 9.00422C43.4176 9.00422 41.3192 11.3877 42.6045 14.1419C41.9749 12.9237 41.2142 11.7849 40.3224 10.7521C40.7946 9.93112 41.7126 7.70655 40.0076 5.72033C40.0076 5.72033 38.5125 7.41524 39.1682 9.48091C38.8272 9.13663 38.46 8.79235 38.0666 8.47456C38.119 8.44808 38.1715 8.42159 38.2239 8.39511C38.2239 8.39511 37.5419 7.65359 36.414 7.17689C35.9156 6.83261 35.4172 6.51482 34.8664 6.19702C35.3386 6.48833 35.8107 6.77965 36.2304 7.09744C35.2861 6.72668 34.0532 6.56778 32.6892 7.17689C32.6892 7.17689 34.6828 9.77223 37.9354 8.50104C38.3813 8.92477 38.8272 9.3485 39.2469 9.79871C39.4305 10.2224 39.6929 10.6462 40.0863 11.0964C40.0863 11.0964 40.1388 11.0434 40.1912 10.911C41.4503 12.5265 42.4471 14.3273 43.1029 16.287C42.2635 15.2542 40.7683 14.0095 38.3813 14.2214C38.3813 14.2214 39.4568 17.7966 43.4963 17.6377C43.7324 18.5646 43.8898 19.518 43.9947 20.4978C44.2046 22.8813 43.9422 25.2118 43.2602 27.3834C43.1553 25.7944 42.4996 23.5169 39.8502 22.2457C39.8502 22.2457 38.4862 26.5624 42.7356 28.8665C42.1061 30.429 41.2667 31.8855 40.2175 33.2362C40.7421 31.6207 41.2142 28.4957 38.4862 26.0593C38.4862 26.0593 35.5484 30.4025 39.5355 34.1101C36.4927 37.6323 32.1384 40.1747 27.1021 40.9957L27.0759 40.9162L29.2005 39.3273H26.5775L25.7643 36.8114L24.9512 39.3273H22.3281L24.4528 40.9162L24.4265 41.0486C19.2329 40.2806 14.7212 37.7383 11.6259 34.1101C15.613 30.4025 12.6752 26.0593 12.6752 26.0593C9.94716 28.4957 10.4193 31.6207 10.9439 33.2362C9.92093 31.8855 9.05531 30.429 8.42577 28.8665C12.6752 26.5624 11.3112 22.2457 11.3112 22.2457C8.66185 23.5169 8.03231 25.8209 7.90116 27.3834C7.21916 25.2118 6.95685 22.8813 7.1667 20.4978C7.24539 19.518 7.429 18.5646 7.66508 17.6377C11.7309 17.7966 12.7801 14.2214 12.7801 14.2214C10.3931 14.036 8.89793 15.2542 8.05854 16.287C8.71431 14.3273 9.71108 12.5265 10.9702 10.911C11.0489 11.0169 11.0751 11.0964 11.0751 11.0964C11.4685 10.6726 11.7309 10.2224 11.9145 9.79871C12.3342 9.3485 12.7539 8.89829 13.226 8.50104C16.4786 9.79871 18.4722 7.17689 18.4722 7.17689C17.1082 6.59427 15.8753 6.75316 14.931 7.09744C15.3769 6.77965 15.8229 6.46185 16.295 6.19702C15.7704 6.48833 15.2458 6.83261 14.7474 7.17689C13.6195 7.65359 12.9375 8.39511 12.9375 8.39511C12.9899 8.42159 13.0424 8.44808 13.0949 8.47456C12.7276 8.79235 12.3604 9.13663 11.9932 9.48091C12.6227 7.41524 11.1538 5.72033 11.1538 5.72033C9.44877 7.70655 10.3669 9.90464 10.839 10.7521C9.97339 11.8114 9.18647 12.9237 8.55693 14.1419C9.8947 11.3877 7.79623 9.00422 7.79623 9.00422C5.14693 12.0498 7.66508 15.5455 7.66508 15.5455C7.97985 15.2012 8.24216 14.8305 8.42577 14.4862C7.8487 15.6515 7.37654 16.8697 7.06177 18.1673C6.58962 15.3601 3.70423 14.3008 3.70423 14.3008C3.12716 17.5317 5.8027 19.3856 6.72077 19.9152C6.66831 20.286 6.61585 20.6832 6.58962 21.054C5.67154 31.3029 13.4359 40.4395 24.138 42.0285L23.6921 43.4586L25.4233 42.1874C25.4758 42.1874 25.502 42.1874 25.5545 42.2139L25.5807 42.108L25.6594 42.0285L25.6856 42.2139C25.843 42.1874 26.0004 42.1874 26.1578 42.1609L27.9415 43.4586L27.4431 41.9755Z" fill="#708070"/>
<path d="M23.6659 6.67372L25.7905 5.11122L27.889 6.64723L27.1021 4.10486L29.2005 2.51588H26.6037L25.7905 0L24.9774 2.51588H22.3543L24.479 4.10486L23.6659 6.67372Z" fill="#708070"/>
</svg>
