<svg width="24" height="24" viewBox="0 0 24 24" fill="none" xmlns="http://www.w3.org/2000/svg">
<path d="M17.9526 11.1361C17.7999 9.46088 17.291 7.83764 16.4599 6.37511C15.6288 4.91258 14.4948 3.64454 13.1338 2.65594L11.7964 1.6875L10.5432 2.66203C9.23752 3.67715 8.16066 4.95631 7.38299 6.41595C6.60532 7.87559 6.14433 9.48288 6.03014 11.1328C5.52564 11.0377 5.01338 10.9899 4.5 10.9899H0.75V14.0625C0.75 18.6116 4.45092 22.3125 9 22.3125H15C19.5491 22.3125 23.25 18.6116 23.25 14.0625V10.9899H19.5C18.9807 10.9899 18.4626 11.0388 17.9526 11.1361ZM11.4641 3.84609L11.8286 3.5625L12.2542 3.8707C13.4816 4.76233 14.4969 5.91409 15.2275 7.24366C15.9581 8.57322 16.386 10.0478 16.4806 11.5619C14.4972 12.3477 12.8926 13.8672 12 15.8049C11.1056 13.8636 9.49659 12.3423 7.50825 11.558C7.56063 10.0609 7.94226 8.59371 8.62598 7.26081C9.3097 5.9279 10.2787 4.76202 11.4641 3.84609ZM11.25 20.8125H9C5.27812 20.8125 2.25 17.7844 2.25 14.0625V12.4899H4.5C8.22188 12.4899 11.25 15.518 11.25 19.2399V20.8125ZM21.75 14.0625C21.75 17.7844 18.7219 20.8125 15 20.8125H12.75V19.2399C12.75 15.518 15.7781 12.4899 19.5 12.4899H21.75V14.0625Z" fill="#708070"/>
</svg>
